<svg width="23" height="24" viewBox="0 0 23 24" fill="none" xmlns="http://www.w3.org/2000/svg">
<path d="M22.75 16.7098C22.75 20.8048 20.3088 23.2461 16.2138 23.2461H14.875C14.2563 23.2461 13.75 22.7398 13.75 22.1211V15.6298C13.75 15.3261 13.9975 15.0673 14.3012 15.0673L16.2812 15.0336C16.4387 15.0223 16.5738 14.9098 16.6075 14.7523L17.0012 12.6036C17.0089 12.5549 17.0059 12.5051 16.9924 12.4577C16.979 12.4103 16.9554 12.3663 16.9233 12.3289C16.8912 12.2914 16.8514 12.2614 16.8066 12.2409C16.7618 12.2203 16.713 12.2097 16.6637 12.2098L14.2675 12.2436C13.9525 12.2436 13.705 11.9961 13.6937 11.6923L13.6488 8.93609C13.6488 8.75609 13.795 8.59859 13.9862 8.59859L16.6863 8.55359C16.8775 8.55359 17.0238 8.40734 17.0238 8.21609L16.9788 5.51609C16.9788 5.32484 16.8325 5.17859 16.6413 5.17859L13.6038 5.22359C13.1603 5.23033 12.7226 5.3245 12.3157 5.50071C11.9087 5.67691 11.5406 5.93169 11.2323 6.25045C10.924 6.5692 10.6816 6.94566 10.519 7.35825C10.3565 7.77085 10.277 8.21146 10.285 8.65484L10.3413 11.7486C10.3525 12.0636 10.105 12.3111 9.79 12.3223L8.44 12.3448C8.24875 12.3448 8.1025 12.4911 8.1025 12.6823L8.13625 14.8198C8.13625 15.0111 8.2825 15.1573 8.47375 15.1573L9.82375 15.1348C10.1388 15.1348 10.3863 15.3823 10.3975 15.6861L10.4987 22.0986C10.51 22.7286 10.0037 23.2461 9.37375 23.2461H6.78625C2.69125 23.2461 0.25 20.8048 0.25 16.6986V7.28234C0.25 3.18734 2.69125 0.746094 6.78625 0.746094H16.2138C20.3088 0.746094 22.75 3.18734 22.75 7.28234V16.7098Z" fill="#00FF06"/>
</svg>
