<svg width="23" height="23" viewBox="0 0 23 23" fill="none" xmlns="http://www.w3.org/2000/svg">
<path d="M22.4576 10.4889C22.4299 10.2235 22.3004 9.97768 22.0944 9.79937C21.8884 9.62106 21.6208 9.52314 21.3438 9.52475H12.8501C12.2313 9.52475 11.7251 10.0123 11.7251 10.6081V12.4606C11.7251 13.0564 12.2313 13.5439 12.8501 13.5439H17.9238C17.8001 14.5406 17.1251 16.0464 15.6288 17.0539C14.6726 17.6931 13.4013 18.1373 11.7251 18.1373C11.6463 18.1373 11.5788 18.1373 11.5001 18.1264C8.63135 18.0398 6.20135 16.1873 5.32385 13.6414C5.08051 12.9504 4.95513 12.226 4.9526 11.4964C4.9526 10.7489 5.0876 10.0231 5.3126 9.35142C5.3801 9.15642 5.45885 8.96142 5.54885 8.76642C6.58385 6.52392 8.8451 4.94225 11.5001 4.86642C11.5676 4.85559 11.6463 4.85559 11.7251 4.85559C13.3338 4.85559 14.5376 5.36475 15.3813 5.92809C15.8201 6.22059 16.4051 6.15559 16.7876 5.79809L18.3513 4.32475C18.8463 3.85892 18.8013 3.06809 18.2388 2.67809C16.4501 1.41059 14.2676 0.663086 11.7251 0.663086C11.6463 0.663086 11.5788 0.663086 11.5001 0.673919C9.45412 0.708818 7.45713 1.28258 5.72578 2.33295C3.99443 3.38332 2.59484 4.87019 1.67885 6.63225C0.913848 8.10559 0.475098 9.75225 0.475098 11.4964C0.475098 13.2406 0.913848 14.8873 1.67885 16.3606H1.6901C2.60481 18.1213 4.00255 19.6074 5.73183 20.6577C7.4611 21.708 9.45593 22.2825 11.5001 22.3189C11.5788 22.3298 11.6463 22.3298 11.7251 22.3298C14.7626 22.3298 17.3163 21.3656 19.1726 19.7081C21.2988 17.8123 22.5251 15.0389 22.5251 11.7348C22.5251 11.2689 22.5026 10.8681 22.4576 10.4889Z" fill="#00FF06"/>
</svg>
