<svg width="23" height="24" viewBox="0 0 23 24" fill="none" xmlns="http://www.w3.org/2000/svg">
<path d="M16.2138 0.746094H6.78625C2.69125 0.746094 0.25 3.18734 0.25 7.28234V16.6986C0.25 20.8048 2.69125 23.2461 6.78625 23.2461H16.2025C20.2975 23.2461 22.7388 20.8048 22.7388 16.7098V7.28234C22.75 3.18734 20.3088 0.746094 16.2138 0.746094ZM11.5 16.3611C9.0925 16.3611 7.135 14.4036 7.135 11.9961C7.135 9.58859 9.0925 7.63109 11.5 7.63109C13.9075 7.63109 15.865 9.58859 15.865 11.9961C15.865 14.4036 13.9075 16.3611 11.5 16.3611ZM18.16 6.23609C18.1038 6.37109 18.025 6.49484 17.9237 6.60734C17.8112 6.70859 17.6875 6.78734 17.5525 6.84359C17.3478 6.9305 17.1218 6.95444 16.9034 6.91236C16.685 6.87028 16.484 6.7641 16.3263 6.60734C16.225 6.49484 16.1462 6.37109 16.09 6.23609C16.0322 6.10089 16.0016 5.95562 16 5.80859C16 5.66234 16.0337 5.51609 16.09 5.38109C16.1462 5.23484 16.225 5.12234 16.3263 5.00984C16.585 4.75109 16.9788 4.62734 17.3388 4.70609C17.4175 4.71734 17.485 4.73984 17.5525 4.77359C17.62 4.79609 17.6875 4.82984 17.755 4.87484C17.8112 4.90859 17.8675 4.96484 17.9237 5.00984C18.025 5.12234 18.1038 5.23484 18.16 5.38109C18.2162 5.51609 18.25 5.66234 18.25 5.80859C18.25 5.95484 18.2162 6.10109 18.16 6.23609Z" fill="#00FF06"/>
</svg>
