<svg width="23" height="23" viewBox="0 0 23 23" fill="none" xmlns="http://www.w3.org/2000/svg">
<rect width="23" height="23" fill="#1E1E1E"/>
<g clip-path="url(#clip0_0_1)">
<rect width="1920" height="11013" transform="translate(-1093 -10661)" fill="white"/>
<rect x="-1093" y="-77" width="1920" height="429" fill="#0A0A0A"/>
<path d="M19.0043 19.012H15.7047V13.8342C15.7047 12.5996 15.6789 11.0129 13.9792 11.0129C12.2587 11.0129 11.9965 12.3521 11.9965 13.7429V19.0113H8.69276V8.3651H11.8662V9.81726H11.9087C12.3521 8.97859 13.4306 8.09669 15.0396 8.09669C18.3866 8.09669 19.0078 10.3004 19.0078 13.1657V19.0113L19.0043 19.012ZM4.96022 6.91014C3.89567 6.91014 3.04236 6.04917 3.04236 4.9888C3.04236 3.93192 3.89916 3.07234 4.96022 3.07234C6.02128 3.07234 6.88087 3.93192 6.88087 4.9888C6.88087 6.04917 6.02128 6.91014 4.96022 6.91014ZM6.61525 19.012H3.30449V8.36579H6.61525V19.012ZM20.6607 0H1.64527C0.736887 0 0 0.718761 0 1.60832V20.7012C0 21.5907 0.736887 22.3095 1.64527 22.3095H20.6572C21.5642 22.3095 22.3088 21.5907 22.3088 20.7012V1.60832C22.3088 0.718761 21.5642 0 20.6572 0L20.6607 0Z" fill="#00FF06"/>
</g>
<defs>
<clipPath id="clip0_0_1">
<rect width="1920" height="11013" fill="white" transform="translate(-1093 -10661)"/>
</clipPath>
</defs>
</svg>
