<svg width="451" height="496" viewBox="0 0 451 496" fill="none" xmlns="http://www.w3.org/2000/svg">
<path d="M285.613 273.951C304.626 235.748 309.904 200.618 285.972 161.14C277.349 146.914 265.477 135.359 260.045 131.829C259.898 131.73 251.498 125.661 248.776 124.224C247.627 123.617 247.373 122.281 248.077 121.162C249.462 118.962 249.016 118.932 249.502 117.927C250.482 115.902 251.086 113.746 251.655 111.578C253.426 104.832 252.353 105.143 249.071 93.6413C246.492 84.6018 241.638 58.5491 246.708 50.7012C247.904 48.8505 247.598 46.2503 246.015 44.7733C243.975 42.8688 241.893 44.761 241.606 45.7977C239.886 52.0022 241.008 46.9164 239.702 54.3042C239.42 55.8946 237.657 56.5341 237.667 54.4157C237.677 52.3961 237.217 50.4676 236.677 48.5514C236.417 47.627 234.95 46.1843 232.937 46.2519C231.111 46.3132 228.701 47.5975 228.589 49.4752C228.564 49.8949 227.912 51.0988 229.188 52.7129C235.733 60.9882 229.771 60.9326 229.241 59.7093C229.182 59.5742 226.7 55.852 225.481 52.4136C224.555 49.8015 221.203 48.2135 219.034 50.794C215.954 54.459 220.971 57.3648 222.563 60.5058C222.995 61.3579 225.35 63.1216 224.177 64.3078C220.535 67.9928 217.968 62.1211 215.272 65.3692C214.851 65.876 214.377 66.3362 214.143 66.961C213.178 69.5358 215.52 72.1562 218.105 72.3279C221.791 72.5726 224.78 73.8673 229.306 80.349C233.774 86.7485 239.476 94.4471 235.301 105.296C233.716 109.417 231.332 112.431 229.094 114.144C227.332 115.492 222.306 113.507 221.162 111.865C219.607 109.631 218.348 107.464 218.322 104.676C218.284 100.617 220.348 93.6278 216.255 84.0344C211.385 72.6193 201.314 70.1113 198.775 68.8479C197.745 68.335 196.935 68.5312 190.24 63.8945C189.596 63.4488 188.809 63.206 188.042 63.1608C187.598 63.1348 187.232 62.8775 186.82 62.8999C185.883 62.9506 184.94 62.9277 184.023 63.2534C176.651 65.87 177.507 74.965 177.23 78.8184C176.755 85.4121 176.388 87.1111 175.979 89.9143C174.662 98.9374 178.649 111.194 187.508 117.036C187.508 117.036 193.127 120.882 193.33 121.025C196.342 123.138 198.005 122.775 199.491 127.107C199.688 127.682 200.682 131.557 200.617 132.059C200.235 135.034 174.026 138.398 163.428 113.242C162.343 110.667 160.134 106.131 159.779 104.481C159.225 101.905 156.212 99.7433 154.302 102.216C153.588 103.14 153.119 104.233 153.499 105.476C153.948 106.943 154.033 111.683 154.108 112.009C154.195 112.395 154.04 112.811 153.68 113.022C153.356 113.213 152.487 113 152.277 112.729C145.828 104.416 145.853 101.22 141.795 97.956C138.884 95.6153 134.775 100.309 137.661 104.094C137.759 104.222 146.57 114.244 147.274 116.595C148.635 121.134 137.349 114.278 133.944 114.84C131.605 115.225 131.059 119.038 133.346 121.241C135.643 123.452 136.49 122.352 139.871 123.496C142.015 124.221 144.163 124.933 146.332 125.582C149.899 126.649 147.79 131.134 144.052 133.511C141.946 134.851 142.869 139.109 146.721 138.827C157.131 138.065 149.551 125.417 177.075 146.427C177.878 147.04 180.445 149.512 183.876 151.555C192.244 156.537 199.89 155.115 207.3 154.162C211.042 153.681 209.232 151.808 215.99 159.052C224.46 168.13 235.652 177.459 242.952 199.838C247.624 214.16 249.607 231.565 246.027 247.216C245.701 248.641 244.622 253.444 243.827 254.733C243.493 254.505 243.45 254.153 243.333 253.865C238.992 243.182 227.402 242.05 220.966 248.192C218.944 250.122 219.155 251.562 215.996 256.488C210.457 265.122 213.172 260.164 208.282 270.613C207.463 272.361 205.842 277.531 203.214 274.855C202.041 273.66 200.036 267.815 201.022 261.898C202.052 255.725 202.989 253.229 200.875 252.032C199.312 251.147 197.286 251.905 196.781 253.789C195.042 260.278 191.93 260.161 191.305 257.959C188.635 248.56 191.141 246.014 188.024 241.454C185.664 238.001 180.976 240.42 181.507 244.088C181.829 246.307 183.813 250.81 183.867 250.946C184.513 252.581 186.834 260.873 184.22 260.064C177.988 258.137 175.923 249.354 171.383 252.326C170.5 252.905 170.104 253.827 170.109 254.896C170.118 257.38 171.723 258.009 177.091 261.515C179.759 263.258 185.084 266.844 182.071 267.9C180.267 268.532 178.479 268.713 176.599 268.18C173.702 267.359 172.028 270.353 173.515 272.872C174.952 275.306 178.852 275.735 181.574 276.199C189.835 277.605 192.93 285.632 196.145 292.493C197.33 295.021 197.709 297.163 201.322 298.083C203.59 298.66 205.96 297.722 207.012 296.192C211.239 290.04 212.643 285.838 215.151 283.018C217.356 280.537 217.381 281.564 217.85 282.033C218.84 283.025 218.046 284.172 217.922 285.355C217.57 288.714 219.173 291.928 219.222 295.279C219.431 309.845 175.535 328.06 181.251 382.557C181.948 389.2 184.519 400.342 187.634 407.056C190.301 412.805 199.776 423.499 204.356 427.229C209.279 431.239 214.516 434.189 220.328 436.556C223.046 437.663 229.575 440.848 243.018 440.688C250.55 440.598 257.322 438.936 268.076 431.771C269.119 431.076 270.938 428.456 270.513 427.117C269.645 424.389 264.545 426.535 263.004 427.277C253.893 431.659 248.561 430.869 242.515 430.814C222.78 430.632 206.862 414.127 203.895 402.417C198.107 379.581 203.865 361.278 217.71 344.711C225.087 335.883 225.862 338.414 233.12 329.523C233.73 328.776 234.932 326.452 235.826 326.254C236.27 326.156 237.18 326.665 237.672 326.72C241.075 327.097 245.279 325.205 248.072 319.354C249.499 316.364 248.775 315.472 249.77 314.798C253.106 312.541 256.831 307.706 257.796 308.042C258.509 308.29 259.249 308.46 259.964 308.702C260.373 308.841 260.676 309.165 261.197 309.128C267.574 308.672 280.331 304.197 281.366 306.327C282.647 308.966 276.434 310.795 261.659 334.43C261.131 335.275 260.847 335.411 260.555 336.289C259.36 339.882 253.751 345.817 256.952 352.508C258.618 355.99 261.862 356.466 272.186 356.754C276.865 356.885 279.688 356.644 282.406 360.86C283.37 362.356 284.193 363.943 285.216 365.395C288.395 369.908 295.619 367.183 290.93 361.903C289.483 360.274 288.581 357.514 291.02 357.2C292.132 357.058 292.886 357.116 298.724 359.905C307.774 364.229 311.539 357.923 306.995 355.134C304.754 353.759 299.945 355.48 295.094 352.278C294.176 351.672 294.716 349.942 295.907 349.803C296.932 349.683 298.657 350.024 302.414 349.201C305.824 348.455 308.354 348.875 309.897 347.064C313.656 342.65 308.12 337.879 304.663 340.669C302.632 342.307 297.141 344.498 294.662 345.358C293.986 345.592 292.967 345.251 292.665 344.696C291.926 343.339 293.084 342.13 293.444 341.564C294.763 339.485 297.044 338.676 297.497 337.104C298.187 334.713 295.662 332.972 293.296 333.844C288.712 335.534 287.776 338.85 285.674 339.762C283.827 340.563 281.969 341.337 280.151 342.21C278.994 342.766 278.021 342.389 277.556 341.147C276.982 339.617 277.606 338.68 279.076 336.869C280.788 334.76 282.804 332.989 284.87 331.264C287.714 328.892 290.179 326.18 292.873 323.668C297.141 319.69 298.528 319.219 303.931 312.331C305.045 310.91 308.658 306.881 310.924 303.962C312.294 302.198 315.001 297.038 317.334 293.522C319.476 290.296 318.603 284.262 316.351 280.891C314.62 278.301 311.86 276.775 309.057 275.693C303.973 273.73 290.168 274.517 288.143 273.922C287.347 274.144 286.562 273.813 285.613 273.951Z" fill="url(#paint0_linear_40_686)"/>
<defs>
<linearGradient id="paint0_linear_40_686" x1="225.699" y1="142.426" x2="276.96" y2="378.511" gradientUnits="userSpaceOnUse">
<stop stop-color="#00FF9C"/>
<stop offset="0.9999" stop-color="#00FF06" stop-opacity="0.927083"/>
<stop offset="1" stop-color="#00FF06"/>
</linearGradient>
</defs>
</svg>
