<svg width="667" height="656" viewBox="0 0 667 656" fill="none" xmlns="http://www.w3.org/2000/svg">
<g clip-path="url(#clip0_293_53)">
<path d="M565.136 195.26C559.299 190.549 550.129 184.702 542.824 180.808C530.455 174.333 507.912 165.851 501.313 165.079C491.736 164.11 480.57 167.024 469.173 173.414C459.839 178.777 443.599 191.744 440.367 196.599C438.977 198.751 439.716 198.884 447.682 197.834C471.327 194.753 490.471 199.352 518.554 214.519C535.481 223.708 536.905 226.047 520.43 217.553C501.142 207.625 491.399 204.151 478.191 202.774C457.403 200.393 439.286 202.845 432.49 208.793C427.636 213.041 428.122 214.487 436.641 221.371C450.909 233.043 459.493 236.44 489.528 242.262C496.744 243.739 506.3 246.287 510.758 247.997C519.022 251.206 519.022 251.206 528.822 262.581C534.218 268.925 540.431 276.736 542.627 279.957C546.037 284.922 545.177 284.117 536.735 274.827C518.714 254.594 511.641 250.965 480.194 245.132C469.678 243.268 457.298 240.699 452.719 239.563C442.59 236.894 427.484 230.32 424.857 227.319C423.776 226.084 422.496 225.334 422.143 225.643C420.907 226.724 411.299 247.447 407.295 257.653C404.571 264.87 403.954 267.904 404.98 269.967C406.525 272.979 415.154 280.702 431.663 293.687C441.053 301.21 443.933 304.145 455.3 318.2C476.422 344.293 479.391 349.644 461.679 329.763C453.413 320.319 441.584 308.228 435.548 302.756C425.826 293.963 410.068 282.192 403.16 278.574C400.832 277.338 400.259 278.464 383.117 314.977L365.401 352.615L384.327 374.239C401.553 393.921 403.617 396.635 408.329 405.759C411.122 411.265 413.064 415.799 412.733 415.777C412.314 415.833 409.114 411.464 405.472 406.234C393.807 389.166 368.216 364.024 362.093 363.616C360.769 363.528 318.357 463.775 318.787 466.048C318.898 466.887 320.145 469.38 321.657 471.642C326.7 479.541 333.764 497.051 335.221 505.128C336.922 514.55 337.729 526.158 337.432 535.613L337.146 542.41L336.185 533.12C334.727 518.809 331.977 503.914 329.991 498.795C328.997 496.235 325.157 490.244 321.405 485.423C315.743 478.064 314.574 476.906 313.824 478.186C311.529 482.688 274.631 561.275 273.263 564.342C272.546 566.373 271.907 567.245 271.884 566.329C272.028 565.424 283.377 533.513 297.209 495.533C311.051 457.388 322.875 424.594 323.592 422.563L324.761 418.735L312.503 420.579C273.555 426.299 250.771 431.433 242.121 436.509C225.086 446.431 225.174 446.354 235.093 438.452C240.19 434.303 247.328 429.458 251.024 427.626C263.58 421.313 288.879 414.601 317.61 410.03C325.257 408.793 332.086 407.336 332.616 406.872C333.852 405.791 368.574 316.17 368.034 315.552C367.493 314.935 340.626 313.978 326.315 314.19C311.099 314.258 285.281 316.28 271.588 318.445C266.303 319.173 244.766 324.307 223.714 329.639C202.662 334.971 185.759 339.166 185.947 338.846C188.076 336.826 242.349 318.161 255.787 314.816C284.684 307.762 320.863 303.686 356.535 303.483L374.167 303.326L382.738 283.2C387.547 272.132 393.426 258.725 395.787 253.23L400.177 243.465L394.185 241.071C384.718 237.2 361.414 231.41 342.601 228.08C294.713 219.491 253.303 217.234 224.098 221.442C212.854 223.021 220.489 220.703 235.296 218.031C276.109 210.523 301.03 226.606 362.093 239.563C394.224 246.356 402.084 232.287 405.703 229.12C407.998 227.112 417.396 207.04 418.113 202.516C418.366 201.203 414.692 198.964 404.948 194.243C397.621 190.68 378.311 181.083 362.311 172.953C346.146 164.812 330.201 157.102 326.802 155.712C313.605 150.428 273.132 139.091 257.607 136.312C256.537 136.158 255.897 135.783 256.162 135.551C256.956 134.856 290.577 140.501 307.701 144.217C336.544 150.458 355.744 157.97 399.165 179.977C412.031 186.485 419.545 189.728 419.369 188.636C418.463 184.752 409.877 167.64 403.719 157.754C395.916 145.1 384.892 133.394 372.268 124.492C367.744 121.281 364.036 118.292 364.058 117.961C364.136 116.802 386.337 130.415 393.212 135.776C401.113 141.954 413.042 157.543 419.896 170.717C426.154 182.853 426.341 182.533 422.731 163.092C418.071 138.179 410.919 117.006 402.951 104.34C397.918 96.275 385.162 84.3712 378.067 81.073C371.457 77.9734 357.334 76.618 338.753 77.2934C318.252 78.0905 262.764 82.5441 254.434 84.0678C236.835 87.4685 220.606 95.2824 203.935 108.47C174.269 132.097 150.065 168.556 128.49 221.73C120.537 241.316 108.162 278.645 109.244 279.88C109.553 280.233 111.075 279.836 112.719 278.865C121.501 274.296 145.41 264.748 155.23 262.077C167.51 258.655 177.363 257.981 206.437 258.253C216.82 258.362 234.452 258.205 245.618 257.784C278.443 256.644 295.932 259.885 303.193 268.182C307.442 273.036 307.619 276.622 303.824 279.944C295.351 287.359 269.863 289.404 212.576 287.171C171.464 285.433 142.501 292.234 118.361 308.997C92.037 327.361 85.2216 354.836 95.4558 400.9C97.5202 409.848 106.284 436.781 107.752 438.457C108.138 438.899 110.808 435.003 113.809 429.883C121.045 417.315 131.272 404.779 138.41 399.935C148.174 393.104 165.452 387.022 211.351 374.283C237.092 367.185 267.203 365.614 276.317 371.042C280.234 373.381 280.455 373.811 279.915 376.933C279.628 378.743 278.834 380.685 278.216 381.226C274.509 384.47 257.927 391.346 236.941 398.179C209.237 407.307 204.283 409.305 193.724 415.585C175.376 426.499 160.229 440.536 149.694 456.459C143.042 466.49 141.012 473.254 142.238 481.065C144.623 496.435 155.162 511.682 183.126 539.892C205.637 562.586 209.08 567.054 225.16 595.221C237.973 617.519 244.484 625.848 249.449 626.179C251.358 626.223 263.517 622.127 276.492 617.006C301.25 607.183 309.04 605.041 342.229 598.439C365.476 593.835 381.364 588.658 388.789 583.251C392.982 580.205 394.791 577.998 397.67 572.205C399.766 568.188 401.486 563.565 401.762 561.921C402.214 557.629 398.284 542.987 390.668 521.285C382.765 498.898 379.95 487.49 379.938 478.928C379.97 472.197 382.551 468.379 387.13 468.268C390.794 468.179 397.448 476.851 406.73 493.511C416.453 511.031 419.698 520.972 422.867 544.54C424.623 556.875 425.473 560.34 426.985 560.108C433.649 558.64 464.42 543.398 477.45 534.956C488.991 527.661 492.51 523.49 494.561 515.148C498.531 499.204 490.174 462.407 474.049 424.928C457.836 387.525 455.849 381.159 457.701 374.55C460.856 363.372 477.662 374.382 496.411 399.9C509.444 417.641 518.682 436.209 532.037 471.593L534.918 479.515L538.614 475.189C548.068 464.264 564.263 441.985 569.15 433.5C582.509 410.118 593.185 378.328 598.588 345.855C602.149 324.813 604.494 288.313 603.191 272.932C602.196 259.151 597.062 238.861 592.162 228.81C588.509 221.252 571.846 200.61 565.136 195.26Z" fill="url(#paint0_linear_293_53)"/>
<path d="M386.154 368.65C402.87 330.698 406.392 296.354 381.361 259.121C372.342 245.705 360.29 235.028 354.856 231.849C354.709 231.76 346.278 226.252 343.57 224.981C342.426 224.444 342.119 223.158 342.752 222.04C343.996 219.841 343.562 219.832 343.988 218.835C344.847 216.824 345.335 214.703 345.788 212.573C347.2 205.943 346.173 206.295 342.462 195.279C339.546 186.621 333.647 161.551 338.211 153.702C339.288 151.851 338.872 149.34 337.268 147.979C335.201 146.223 333.266 148.155 333.035 149.174C331.648 155.276 332.505 150.287 331.574 157.519C331.373 159.076 329.69 159.777 329.604 157.72C329.522 155.759 328.987 153.908 328.376 152.072C328.081 151.187 326.591 149.853 324.64 150.01C322.87 150.153 320.589 151.51 320.566 153.338C320.561 153.746 319.983 154.945 321.296 156.453C328.026 164.188 322.236 164.406 321.665 163.243C321.602 163.114 319.023 159.614 317.683 156.332C316.665 153.838 313.338 152.449 311.351 155.053C308.528 158.752 313.53 161.344 315.219 164.32C315.677 165.128 318.044 166.733 316.96 167.937C313.592 171.681 310.832 166.098 308.363 169.374C307.977 169.885 307.538 170.353 307.34 170.97C306.52 173.514 308.913 175.951 311.431 176C315.02 176.069 317.98 177.19 322.669 183.276C327.299 189.285 333.185 196.498 329.627 207.22C328.275 211.292 326.099 214.328 324.004 216.093C322.355 217.481 317.385 215.783 316.2 214.241C314.589 212.144 313.268 210.097 313.115 207.392C312.893 203.454 314.578 196.575 310.168 187.448C304.92 176.589 295.029 174.613 292.507 173.503C291.483 173.052 290.706 173.279 283.995 169.083C283.35 168.68 282.575 168.48 281.829 168.471C281.396 168.466 281.029 168.233 280.63 168.273C279.723 168.365 278.807 168.386 277.931 168.744C270.894 171.62 272.14 180.41 272.046 184.164C271.886 190.586 271.607 192.252 271.337 194.992C270.471 203.811 274.899 215.528 283.766 220.795C283.766 220.795 289.396 224.273 289.599 224.402C292.62 226.317 294.217 225.887 295.857 230.025C296.075 230.575 297.216 234.292 297.177 234.782C296.941 237.687 271.651 242.147 260.217 218.21C259.046 215.759 256.695 211.457 256.275 209.871C255.62 207.396 252.597 205.435 250.855 207.922C250.204 208.852 249.799 209.934 250.225 211.124C250.727 212.527 251.026 217.124 251.113 217.438C251.216 217.808 251.084 218.219 250.744 218.441C250.438 218.641 249.585 218.473 249.369 218.22C242.729 210.444 242.608 207.34 238.519 204.357C235.587 202.217 231.813 206.961 234.787 210.504C234.887 210.624 243.897 219.951 244.689 222.201C246.216 226.545 234.947 220.405 231.668 221.105C229.415 221.586 229.059 225.312 231.38 227.346C233.71 229.388 234.482 228.281 237.816 229.237C239.931 229.843 242.049 230.437 244.183 230.968C247.695 231.841 245.852 236.291 242.332 238.769C240.348 240.166 241.438 244.257 245.165 243.808C255.236 242.594 247.301 230.661 274.977 249.802C275.785 250.36 278.389 252.644 281.813 254.47C290.164 258.926 297.521 257.197 304.671 255.934C308.281 255.296 306.439 253.56 313.33 260.284C321.966 268.711 333.256 277.257 341.363 298.649C346.55 312.339 349.269 329.145 346.507 344.501C346.256 345.899 345.427 350.611 344.714 351.899C344.38 351.692 344.322 351.353 344.195 351.079C339.494 340.906 328.191 340.335 322.223 346.591C320.348 348.557 320.62 349.945 317.777 354.871C312.793 363.505 315.203 358.568 310.932 368.935C310.217 370.669 308.879 375.762 306.205 373.283C305.012 372.177 302.8 366.594 303.488 360.806C304.206 354.766 305.002 352.3 302.895 351.234C301.338 350.446 299.405 351.275 299.001 353.126C297.609 359.505 294.582 359.533 293.875 357.425C290.855 348.422 293.171 345.837 289.937 341.551C287.489 338.307 283.049 340.869 283.732 344.406C284.145 346.545 286.277 350.826 286.335 350.956C287.037 352.513 289.668 360.456 287.093 359.791C280.956 358.205 278.551 349.772 274.279 352.864C273.448 353.466 273.106 354.38 273.159 355.417C273.281 357.828 274.868 358.365 280.238 361.524C282.909 363.095 288.24 366.333 285.364 367.495C283.642 368.191 281.915 368.448 280.065 368.017C277.215 367.352 275.726 370.334 277.285 372.712C278.791 375.009 282.596 375.249 285.26 375.574C293.343 376.563 296.714 384.214 300.148 390.727C301.414 393.128 301.879 395.19 305.428 395.918C307.656 396.375 309.914 395.356 310.865 393.823C314.689 387.659 315.86 383.516 318.166 380.664C320.193 378.155 320.264 379.15 320.741 379.585C321.747 380.502 321.028 381.652 320.962 382.806C320.774 386.082 322.477 389.129 322.676 392.38C323.544 406.511 281.761 426.195 289.794 478.838C290.773 485.254 293.777 495.954 297.107 502.329C299.959 507.789 309.644 517.738 314.259 521.15C319.221 524.818 324.44 527.443 330.19 529.476C332.878 530.427 339.362 533.221 352.404 532.453C359.712 532.022 366.21 530.1 376.323 522.655C377.304 521.933 378.951 519.306 378.477 518.026C377.511 515.417 372.657 517.733 371.195 518.523C362.55 523.193 357.338 522.668 351.466 522.89C332.3 523.614 316.096 508.317 312.681 497.084C306.021 475.18 310.777 457.15 323.462 440.436C330.221 431.53 331.089 433.952 337.729 424.99C338.288 424.236 339.348 421.926 340.207 421.693C340.633 421.578 341.54 422.03 342.021 422.061C345.341 422.272 349.336 420.243 351.78 414.437C353.03 411.469 352.286 410.636 353.221 409.937C356.357 407.593 359.752 402.73 360.705 403.012C361.408 403.22 362.134 403.352 362.839 403.554C363.243 403.67 363.551 403.971 364.056 403.911C370.225 403.179 382.406 398.252 383.507 400.273C384.871 402.776 378.923 404.835 365.658 428.453C365.183 429.297 364.914 429.442 364.671 430.307C363.674 433.85 358.5 439.867 361.912 446.216C363.688 449.521 366.858 449.835 376.894 449.644C381.442 449.558 384.172 449.195 387.003 453.164C388.007 454.572 388.878 456.075 389.937 457.438C393.229 461.675 400.117 458.7 395.325 453.788C393.846 452.272 392.844 449.634 395.198 449.219C396.27 449.03 397.006 449.052 402.8 451.493C411.782 455.278 415.149 448.985 410.611 446.485C408.374 445.252 403.783 447.142 398.928 444.254C398.009 443.708 398.455 442.004 399.604 441.815C400.594 441.651 402.284 441.904 405.894 440.934C409.17 440.054 411.646 440.347 413.06 438.518C416.508 434.062 410.917 429.683 407.688 432.549C405.791 434.232 400.561 436.609 398.194 437.556C397.548 437.815 396.543 437.53 396.224 437.005C395.445 435.721 396.515 434.495 396.838 433.929C398.023 431.851 400.201 430.961 400.57 429.415C401.13 427.062 398.6 425.487 396.343 426.442C391.97 428.291 391.212 431.553 389.213 432.534C387.456 433.396 385.688 434.232 383.964 435.162C382.866 435.755 381.903 435.433 381.395 434.248C380.769 432.789 381.331 431.852 382.676 430.026C384.242 427.901 386.118 426.089 388.046 424.322C390.698 421.888 392.967 419.144 395.468 416.583C399.43 412.526 400.755 412.006 405.686 405.073C406.703 403.643 410.026 399.566 412.093 396.63C413.342 394.855 415.735 389.722 417.84 386.203C419.772 382.974 418.65 377.156 416.31 373.986C414.512 371.551 411.763 370.195 408.992 369.272C403.967 367.599 390.602 368.992 388.609 368.506C387.846 368.759 387.069 368.473 386.154 368.65Z" fill="#0A0A0A"/>
</g>
<defs>
<linearGradient id="paint0_linear_293_53" x1="136.755" y1="500.812" x2="531.293" y2="155.503" gradientUnits="userSpaceOnUse">
<stop stop-color="#00FF06"/>
<stop offset="1" stop-color="#00FF9C"/>
</linearGradient>
<clipPath id="clip0_293_53">
<rect width="667" height="656" fill="white"/>
</clipPath>
</defs>
</svg>
