<svg width="314" height="53" viewBox="0 0 314 53" fill="none" xmlns="http://www.w3.org/2000/svg">
<g clip-path="url(#clip0_79_1515)">
<path d="M10.1252 26.4405L31.3822 47.8673L26.29 53.0002L0 26.5002L18.2372 8.05762L23.3294 13.1308L10.1252 26.4405Z" fill="white"/>
<path d="M26.2899 0L21.1977 5.13288L29.1913 13.1306L15.9871 26.4403L34.3427 44.8829L52.5799 26.5L26.2899 0ZM34.2835 34.6171L26.1123 26.4403L34.2835 18.2038L42.4547 26.4403L34.2835 34.6171Z" fill="white"/>
<path d="M73.6002 12.1758V36.7062H68.9817V12.1758H73.6002Z" fill="white"/>
<path d="M79.6991 11.1611L83.0741 14.5632L79.6991 17.9652L76.324 14.5632L79.6991 11.1611ZM82.0675 19.1589V36.6465H77.449V19.1589H82.0675Z" fill="white"/>
<path d="M96.3966 22.9193H85.5017L85.4425 19.1592H102.259V22.9193L90.6531 32.827H102.495V36.6468H84.9095V32.7673H84.8503L96.3966 22.9193Z" fill="white"/>
<path d="M117.18 26.5003H118.305V25.9035C118.305 23.5758 116.41 22.2627 113.094 22.2627C110.963 22.2627 109.068 22.6805 106.167 23.8145V20.3528C108.476 19.2785 110.726 18.6816 113.509 18.6816C119.489 18.6816 122.805 21.4271 122.805 26.2616V36.7064H118.305V33.6028C116.647 35.8111 114.101 37.3033 110.726 37.3033C106.936 37.3033 104.746 35.5127 104.746 32.5285C104.805 28.4699 108.831 26.5003 117.18 26.5003ZM112.266 33.8416C114.219 33.8416 116.351 33.006 118.364 31.4542V29.3055H117.358C111.318 29.3055 109.246 30.2008 109.246 31.8123C109.186 33.0656 110.371 33.8416 112.266 33.8416Z" fill="white"/>
<path d="M126.358 19.1587H130.858V23.2769C132.279 20.2927 135.003 18.9199 137.845 18.9199C138.259 18.9199 138.733 18.9796 139.148 19.0393V23.635C138.082 23.3366 137.075 23.2172 136.187 23.2172C134.115 23.2172 132.338 23.9334 131.036 25.1868V36.5866H126.417V19.1587H126.358Z" fill="white"/>
<path d="M156.615 22.4415V12.1758H161.234V36.7062H156.615V33.2445C154.957 35.99 152.47 37.3627 149.51 37.3627C144.536 37.3627 140.865 33.4832 140.865 27.9922C140.865 22.3819 144.536 18.7411 149.51 18.7411C152.589 18.6814 155.194 20.0542 156.615 22.4415ZM151.227 33.6026C154.543 33.6026 156.793 31.3942 156.793 28.0519V27.7535C156.793 24.5305 154.543 22.3222 151.227 22.3222C147.852 22.3222 145.661 24.5902 145.661 27.9325C145.602 31.3346 147.852 33.6026 151.227 33.6026Z" fill="white"/>
<path d="M169.997 33.5432V43.3912H165.378V19.1592H169.997V22.7403C171.655 19.9948 174.142 18.6221 177.102 18.6221C182.076 18.6221 185.747 22.5016 185.747 27.9926C185.747 33.6029 182.076 37.2437 177.102 37.2437C174.023 37.3034 171.418 35.9306 169.997 33.5432ZM175.385 33.6029C178.76 33.6029 180.951 31.3349 180.951 27.9926C180.951 24.5905 178.76 22.3822 175.385 22.3822C172.01 22.3822 169.819 24.5905 169.819 27.9329V28.2313C169.819 31.4543 172.069 33.6029 175.385 33.6029Z" fill="white"/>
<path d="M188.767 19.1587H193.267V23.2769C194.688 20.2927 197.412 18.9199 200.254 18.9199C200.669 18.9199 201.142 18.9796 201.557 19.0393V23.635C200.491 23.3366 199.484 23.2172 198.596 23.2172C196.524 23.2172 194.747 23.9334 193.445 25.1868V36.5866H188.826V19.1587H188.767Z" fill="white"/>
<path d="M202.919 27.9926C202.919 22.3225 207.004 18.6221 213.281 18.6221C219.616 18.6221 223.643 22.3225 223.643 27.9926C223.643 33.5432 219.557 37.3034 213.281 37.3034C207.004 37.3034 202.919 33.6029 202.919 27.9926ZM213.34 33.5432C216.656 33.5432 218.965 31.3946 218.965 27.9926C218.965 24.5309 216.656 22.3822 213.34 22.3822C210.024 22.3822 207.715 24.5905 207.715 27.9926C207.715 31.3946 210.024 33.5432 213.34 33.5432Z" fill="white"/>
<path d="M224.353 43.6893C222.814 43.6893 221.215 43.4505 219.912 43.0924L219.32 39.392C220.445 39.6904 221.689 39.8098 222.755 39.8098C226.307 39.8098 228.321 38.3773 228.321 35.0947V19.1589H232.939V34.9156C232.88 40.5857 229.682 43.6893 224.353 43.6893ZM230.571 11.1611L233.946 14.5632L230.571 17.9652L227.195 14.5632L230.571 11.1611Z" fill="white"/>
<path d="M246.025 18.6816C251.591 18.6816 255.262 21.8449 255.262 26.7988V29.0668H240.814C241.406 31.9316 244.012 33.6028 248.156 33.6028C250.466 33.6028 252.716 33.1253 255.262 32.3494L254.788 35.9902C252.834 36.8258 250.406 37.3629 247.564 37.3629C240.696 37.3629 236.255 33.6625 236.255 27.9925C236.255 22.3224 240.044 18.6816 246.025 18.6816ZM250.939 26.2019C250.821 23.4564 249.104 22.1434 245.966 22.1434C242.768 22.1434 240.873 23.5758 240.696 26.2019H250.939Z" fill="white"/>
<path d="M274.683 20.1739L274.861 24.0534C272.433 22.8597 270.479 22.3822 268.525 22.3822C264.617 22.3822 262.249 24.4712 262.249 27.8732C262.249 31.2752 264.677 33.4239 268.881 33.4239C271.071 33.4239 273.558 32.827 275.216 31.8124L274.92 35.6919C273.025 36.7662 270.775 37.3034 267.992 37.3034C261.538 37.3034 257.512 33.7223 257.512 27.9329C257.512 22.2032 261.479 18.6221 267.992 18.6221C270.302 18.6818 272.374 19.0995 274.683 20.1739Z" fill="white"/>
<path d="M280.19 22.7994H276.46V19.2184H280.308V16.4729L284.868 13.3096V19.2184H293.157V22.7994H284.868V29.7229C284.868 32.1699 286.467 33.483 289.427 33.483C290.493 33.483 292.032 33.3039 293.868 32.6474L293.276 36.2882C291.559 37.0044 289.782 37.3625 288.006 37.3625C283.269 37.3625 280.249 34.7364 280.249 31.3343V22.7994H280.19Z" fill="white"/>
<path d="M305.414 18.6816C307.842 18.6816 310.329 19.0397 312.579 19.9947L312.756 23.8145C310.447 22.7999 308.138 22.203 305.237 22.203C302.039 22.203 300.5 22.7999 300.5 23.9339C300.5 27.0972 313.941 24.292 313.941 31.872C313.941 35.5724 310.802 37.3629 305.177 37.3629C302.039 37.3629 299.315 36.9452 296.71 35.6918L296.414 31.8123C299.552 33.2447 301.98 33.7819 304.704 33.7819C307.901 33.7819 309.559 33.0656 309.559 31.8123C309.559 28.2909 296.236 30.9767 296.236 23.8742C296.236 20.4722 299.493 18.6816 305.414 18.6816Z" fill="white"/>
</g>
<defs>
<clipPath id="clip0_79_1515">
<rect width="314" height="53" fill="white"/>
</clipPath>
</defs>
</svg>
